<mxfile host="app.diagrams.net" modified="2021-01-13T14:13:32.478Z" agent="5.0 (Windows NT 10.0; Win64; x64) AppleWebKit/537.36 (KHTML, like Gecko) Chrome/87.0.4280.141 Safari/537.36" etag="7ekejCNPMkDoChIIgGhK" version="14.1.9" type="github">
  <diagram id="C5RBs43oDa-KdzZeNtuy" name="Page-1">
    <mxGraphModel dx="1483" dy="829" grid="1" gridSize="10" guides="1" tooltips="1" connect="1" arrows="1" fold="1" page="1" pageScale="1" pageWidth="827" pageHeight="1169" math="0" shadow="0">
      <root>
        <mxCell id="WIyWlLk6GJQsqaUBKTNV-0" />
        <mxCell id="WIyWlLk6GJQsqaUBKTNV-1" parent="WIyWlLk6GJQsqaUBKTNV-0" />
        <mxCell id="Q0wa2b69Kgk6BVwdE5Ie-12" value="" style="rounded=1;whiteSpace=wrap;html=1;" vertex="1" parent="WIyWlLk6GJQsqaUBKTNV-1">
          <mxGeometry x="20" y="20" width="370" height="240" as="geometry" />
        </mxCell>
        <mxCell id="Q0wa2b69Kgk6BVwdE5Ie-3" value="&lt;h1&gt;Go-Modules&lt;/h1&gt;&lt;p&gt;&lt;br&gt;&lt;/p&gt;" style="text;html=1;strokeColor=none;fillColor=none;spacing=5;spacingTop=-20;whiteSpace=wrap;overflow=hidden;rounded=0;" vertex="1" parent="WIyWlLk6GJQsqaUBKTNV-1">
          <mxGeometry x="40" y="30" width="190" height="40" as="geometry" />
        </mxCell>
        <mxCell id="Q0wa2b69Kgk6BVwdE5Ie-10" style="edgeStyle=orthogonalEdgeStyle;rounded=0;orthogonalLoop=1;jettySize=auto;html=1;exitX=1;exitY=0.5;exitDx=0;exitDy=0;entryX=0;entryY=0.5;entryDx=0;entryDy=0;startArrow=openThin;startFill=0;endArrow=none;endFill=0;" edge="1" parent="WIyWlLk6GJQsqaUBKTNV-1" source="Q0wa2b69Kgk6BVwdE5Ie-4" target="Q0wa2b69Kgk6BVwdE5Ie-9">
          <mxGeometry relative="1" as="geometry" />
        </mxCell>
        <mxCell id="Q0wa2b69Kgk6BVwdE5Ie-4" value="&lt;font style=&quot;font-size: 16px&quot;&gt;go.mod&lt;/font&gt;" style="whiteSpace=wrap;html=1;" vertex="1" parent="WIyWlLk6GJQsqaUBKTNV-1">
          <mxGeometry x="40" y="80" width="150" height="40" as="geometry" />
        </mxCell>
        <mxCell id="Q0wa2b69Kgk6BVwdE5Ie-8" value="" style="edgeStyle=orthogonalEdgeStyle;rounded=0;orthogonalLoop=1;jettySize=auto;html=1;startArrow=openThin;startFill=0;endArrow=none;endFill=0;" edge="1" parent="WIyWlLk6GJQsqaUBKTNV-1" source="Q0wa2b69Kgk6BVwdE5Ie-6" target="Q0wa2b69Kgk6BVwdE5Ie-7">
          <mxGeometry relative="1" as="geometry" />
        </mxCell>
        <mxCell id="Q0wa2b69Kgk6BVwdE5Ie-6" value="&lt;font style=&quot;font-size: 16px&quot;&gt;go.sum&lt;/font&gt;" style="whiteSpace=wrap;html=1;" vertex="1" parent="WIyWlLk6GJQsqaUBKTNV-1">
          <mxGeometry x="40" y="130" width="150" height="40" as="geometry" />
        </mxCell>
        <mxCell id="Q0wa2b69Kgk6BVwdE5Ie-7" value="&lt;font style=&quot;font-size: 16px&quot;&gt;wir aufgefÃ¼llt mit&lt;br&gt;go get xxx&lt;br&gt;&lt;/font&gt;" style="whiteSpace=wrap;html=1;" vertex="1" parent="WIyWlLk6GJQsqaUBKTNV-1">
          <mxGeometry x="220" y="190" width="150" height="40" as="geometry" />
        </mxCell>
        <mxCell id="Q0wa2b69Kgk6BVwdE5Ie-9" value="&lt;font style=&quot;font-size: 16px&quot;&gt;go mod tidy&lt;br&gt;&lt;/font&gt;" style="whiteSpace=wrap;html=1;" vertex="1" parent="WIyWlLk6GJQsqaUBKTNV-1">
          <mxGeometry x="220" y="80" width="150" height="40" as="geometry" />
        </mxCell>
      </root>
    </mxGraphModel>
  </diagram>
</mxfile>
